<?xml version="1.0" encoding="UTF-8" standalone="no"?>
<!-- Created with Inkscape (http://www.inkscape.org/) -->

<svg
   xmlns:dc="http://purl.org/dc/elements/1.1/"
   xmlns:cc="http://creativecommons.org/ns#"
   xmlns:rdf="http://www.w3.org/1999/02/22-rdf-syntax-ns#"
   xmlns:svg="http://www.w3.org/2000/svg"
   xmlns="http://www.w3.org/2000/svg"
   xmlns:sodipodi="http://sodipodi.sourceforge.net/DTD/sodipodi-0.dtd"
   xmlns:inkscape="http://www.inkscape.org/namespaces/inkscape"
   width="93.195091mm"
   height="93.195091mm"
   viewBox="0 0 93.195091 93.195091"
   version="1.1"
   id="svg8"
   inkscape:version="0.92.4 (5da689c313, 2019-01-14)"
   sodipodi:docname="dablcoaster.svg">
  <defs
     id="defs2" />
  <sodipodi:namedview
     id="base"
     pagecolor="#ffffff"
     bordercolor="#666666"
     borderopacity="1.0"
     inkscape:pageopacity="0.0"
     inkscape:pageshadow="2"
     inkscape:zoom="1.979899"
     inkscape:cx="147.03665"
     inkscape:cy="183.78271"
     inkscape:document-units="mm"
     inkscape:current-layer="layer1"
     showgrid="false"
     inkscape:window-width="1920"
     inkscape:window-height="1017"
     inkscape:window-x="1912"
     inkscape:window-y="-8"
     inkscape:window-maximized="1"
     fit-margin-top="0"
     fit-margin-left="0"
     fit-margin-right="0"
     fit-margin-bottom="0" />
  <metadata
     id="metadata5">
    <rdf:RDF>
      <cc:Work
         rdf:about="">
        <dc:format>image/svg+xml</dc:format>
        <dc:type
           rdf:resource="http://purl.org/dc/dcmitype/StillImage" />
        <dc:title></dc:title>
      </cc:Work>
    </rdf:RDF>
  </metadata>
  <g
     inkscape:label="Layer 1"
     inkscape:groupmode="layer"
     id="layer1"
     transform="translate(-59.217107,-91.965123)">
    <path
       style="fill:none;stroke:#0000ff;stroke-width:0.025;stroke-miterlimit:4;stroke-dasharray:none;stroke-opacity:1"
       d="m 93.53356,167.21293 c -2.130557,-1.42402 -6.024038,-4.01192 -8.652174,-5.7509 l -4.778431,-3.16177 0.06773,1.32589 0.06773,1.32589 -1.218654,-2.74391 c -0.670259,-1.50914 -1.205982,-2.75963 -1.190494,-2.77886 0.02838,-0.0352 7.611669,1.05582 7.659866,1.10206 0.01424,0.0137 -0.736305,0.13691 -1.667864,0.27389 -0.931555,0.13698 -1.775096,0.27867 -1.874536,0.31487 -0.127023,0.0462 1.983135,1.55401 7.094698,5.06939 4.001522,2.75197 7.632129,5.25738 8.068016,5.56757 0.73477,0.52288 0.809782,0.55286 1.029403,0.41147 0.28759,-0.18515 27.14406,-12.11247 27.27336,-12.11247 0.0502,0 0.24794,0.16159 0.43936,0.35908 l 0.34803,0.35908 -14.34235,6.48891 c -7.88829,3.5689 -14.366555,6.50017 -14.396146,6.51393 -0.02958,0.0138 -1.796989,-1.14009 -3.927549,-2.56412 z"
       id="path847"
       inkscape:connector-curvature="0" />
    <path
       id="path831"
       style="fill:#000000;stroke:none;stroke-width:1"
       d="m 130.35207,147.05318 c -0.0394,-0.0394 -0.0717,-4.34899 -0.0717,-9.57675 v -9.50502 h 4.19655 4.19656 v 7.15566 7.15567 h 3.71235 3.71233 v 2.42109 2.42109 H 138.261 c -4.31044,0 -7.86944,-0.0323 -7.9089,-0.0717 z M 117.418,135.4987 c 1.22225,-0.17664 1.6704,-0.64566 1.67111,-1.74892 7.3e-4,-1.25615 -0.71893,-1.90463 -2.11393,-1.90463 h -0.57577 v 1.88307 c 0,1.43586 0.0319,1.88256 0.13451,1.88094 0.074,-0.001 0.47181,-0.0509 0.88408,-0.11046 z m 1.01852,7.07421 c 0.62779,-0.31118 0.8682,-0.77217 0.8682,-1.66473 0,-1.42064 -0.82892,-2.17393 -2.39419,-2.17577 l -0.51112,-7.3e-4 v 2.11218 2.11218 l 0.78013,-0.0734 c 0.4532,-0.0427 0.97997,-0.1725 1.25698,-0.30982 z m -10.43022,-5.02584 v -9.59472 l 6.80596,0.048 c 6.37699,0.0449 6.86848,0.0619 7.79806,0.26948 2.66316,0.59464 4.26745,2.12773 4.54565,4.34389 0.23205,1.84853 -0.39764,3.39411 -1.78859,4.39015 l -0.58848,0.4214 0.61372,0.39259 c 0.83701,0.53543 1.58226,1.3263 1.94128,2.06012 0.24079,0.49215 0.30843,0.8008 0.34553,1.57675 0.0263,0.55117 -0.0108,1.22384 -0.0865,1.56896 -0.41003,1.86766 -1.94022,3.28394 -4.14545,3.83687 -0.67134,0.16832 -1.55164,0.19388 -8.0972,0.23507 l -7.34397,0.0462 z m -27.125441,2.1451 c 1.094526,-0.23474 1.730895,-1.00568 1.730895,-2.09695 0,-1.4889 -0.903462,-2.30674 -2.548227,-2.30674 h -0.57229 v 2.25968 2.25968 h 0.42512 c 0.233815,0 0.66784,-0.0521 0.964502,-0.11567 z m -9.782735,-2.15446 v -9.5872 l 5.568506,0.0525 c 5.905321,0.0557 6.353329,0.0906 7.961464,0.61997 1.646004,0.54187 3.007901,1.44425 4.0983,2.7155 1.626114,1.89581 2.365709,4.08273 2.245608,6.6401 -0.209336,4.4576 -2.909393,7.67018 -7.328633,8.71975 -1.371326,0.32569 -3.176158,0.41996 -8.10658,0.42345 l -4.438665,0.003 z m 28.311556,5.97749 c 0.468905,-0.4406 0.73636,-1.07194 0.73916,-1.74485 l 0.002,-0.56619 -0.457312,0.0642 c -2.249878,0.31587 -2.663201,0.55345 -2.663201,1.53082 0,0.37841 0.06287,0.53142 0.326817,0.79536 0.309045,0.30905 0.364521,0.32442 1.020371,0.28266 0.587287,-0.0374 0.745384,-0.0929 1.031804,-0.362 z m -4.711945,3.63104 c -0.834418,-0.297 -1.4707,-0.87478 -1.880868,-1.70795 -0.301052,-0.61152 -0.35694,-0.85306 -0.394127,-1.7033 -0.07301,-1.66936 0.433114,-2.82546 1.589453,-3.63064 0.832319,-0.57956 1.919454,-0.88396 4.175241,-1.16906 2.175036,-0.2749 2.181726,-0.27865 1.718975,-0.96533 -0.163467,-0.24257 -0.422654,-0.43037 -0.780129,-0.56527 -1.003729,-0.37877 -3.14256,-0.0628 -4.920195,0.72676 l -0.618721,0.27483 v -1.71563 -1.71562 l 0.847486,-0.26772 c 1.574333,-0.49733 2.629261,-0.65036 4.47891,-0.64971 1.92538,7.3e-4 2.65464,0.14063 3.74121,0.71796 0.76792,0.40802 1.30118,0.98638 1.70086,1.84469 0.54432,1.16893 0.63756,2.12497 0.63756,6.53742 v 3.96725 h -2.42109 -2.42109 l -0.003,-0.99534 -0.003,-0.99534 -0.238549,0.32282 c -0.557215,0.75405 -1.003579,1.1485 -1.672035,1.47758 -0.64532,0.31769 -0.814759,0.35259 -1.844588,0.37993 -0.886298,0.0235 -1.255768,-0.0132 -1.691486,-0.16833 z"
       inkscape:connector-curvature="0" />
    <path
       style="fill:none;stroke:#0000ff;stroke-width:0.025;stroke-miterlimit:4;stroke-dasharray:none;stroke-opacity:1"
       d="m 119.44373,118.94448 c -2.02451,-0.2679 -3.65519,-0.51332 -3.62372,-0.54537 0.0315,-0.032 0.78541,-0.17932 1.67543,-0.32727 0.89001,-0.14796 1.61527,-0.30905 1.61168,-0.35799 -0.0131,-0.17883 -16.07431,-10.85177 -16.25136,-10.79931 -0.0967,0.0287 -6.180162,2.82262 -13.518755,6.2088 -7.338594,3.38619 -13.439742,6.17611 -13.558109,6.19983 -0.205306,0.0411 -1.0316,-0.53316 -0.913944,-0.63523 0.132274,-0.11474 28.394498,-13.31338 28.507928,-13.31338 0.0703,0 4.02932,2.51941 8.79775,5.59869 4.76842,3.07928 8.67955,5.58511 8.69138,5.56851 0.0118,-0.0166 -0.0196,-0.55819 -0.0698,-1.20353 -0.0502,-0.64534 -0.0745,-1.19011 -0.0541,-1.21059 0.0205,-0.0205 0.58261,1.1525 1.24919,2.60662 0.66657,1.45412 1.19515,2.65589 1.17463,2.67059 -0.0205,0.0147 -1.69374,-0.19246 -3.71826,-0.46037 z"
       id="path4758"
       inkscape:connector-curvature="0" />
    <circle
       style="fill:none;fill-opacity:1;stroke:#ff0000;stroke-width:0.025;stroke-miterlimit:4;stroke-dasharray:none;stroke-opacity:1"
       id="path827"
       cx="105.81465"
       cy="138.56267"
       r="46.585045" />
  </g>
</svg>
